<svg width="64" height="64" viewBox="0 0 64 64" fill="none" xmlns="http://www.w3.org/2000/svg">
<path d="M0 16C0 7.16344 7.16344 0 16 0H48C56.8366 0 64 7.16344 64 16V48C64 56.8366 56.8366 64 48 64H16C7.16344 64 0 56.8366 0 48V16Z" fill="url(#paint0_linear_9_6)"/>
<path d="M30 43.3333L43.3333 30C43.9564 29.3894 44.4522 28.6614 44.7921 27.858C45.132 27.0546 45.3093 26.1919 45.3137 25.3195C45.3181 24.4472 45.1496 23.5827 44.8178 22.7759C44.486 21.9691 43.9975 21.2361 43.3807 20.6193C42.7639 20.0025 42.0309 19.514 41.2241 19.1822C40.4173 18.8504 39.5528 18.6819 38.6805 18.6863C37.8081 18.6907 36.9453 18.868 36.142 19.2079C35.3386 19.5478 34.6106 20.0436 34 20.6667L20.6667 34C20.0436 34.6106 19.5478 35.3386 19.2079 36.142C18.868 36.9454 18.6907 37.8082 18.6863 38.6805C18.6819 39.5528 18.8504 40.4173 19.1822 41.2241C19.514 42.0309 20.0024 42.7639 20.6193 43.3807C21.2361 43.9975 21.9691 44.486 22.7759 44.8178C23.5827 45.1496 24.4472 45.3181 25.3195 45.3137C26.1918 45.3093 27.0546 45.132 27.858 44.7921C28.6614 44.4522 29.3894 43.9564 30 43.3333Z" stroke="white" stroke-width="2.66667" stroke-linecap="round" stroke-linejoin="round"/>
<path d="M27.3333 27.3333L36.6667 36.6667" stroke="white" stroke-width="2.66667" stroke-linecap="round" stroke-linejoin="round"/>
<defs>
<linearGradient id="paint0_linear_9_6" x1="0" y1="0" x2="64" y2="64" gradientUnits="userSpaceOnUse">
<stop stop-color="#7CCF00"/>
<stop offset="1" stop-color="#00A63E"/>
</linearGradient>
</defs>
</svg>
